<svg width="72" height="72" viewBox="0 0 72 72" fill="none" xmlns="http://www.w3.org/2000/svg">
<g clip-path="url(#clip0_1910_13)">
<path d="M72 0H0V72H72V0Z" fill="#FFF8F1"/>
<path opacity="0.35" d="M52.966 38.7668C52.716 36.0168 51.9827 33.0835 46.6327 33.0835H25.366C20.016 33.0835 19.2993 36.0168 19.0327 38.7668L18.0993 48.9168C17.9827 50.1835 18.3993 51.4502 19.266 52.4002C20.1493 53.3668 21.3993 53.9168 22.7327 53.9168H25.866C28.566 53.9168 29.0827 52.3668 29.416 51.3502L29.7493 50.3502C30.1327 49.2002 30.2327 48.9168 31.7327 48.9168H40.266C41.766 48.9168 41.816 49.0835 42.2493 50.3502L42.5827 51.3502C42.916 52.3668 43.4327 53.9168 46.1327 53.9168H49.266C50.5827 53.9168 51.8493 53.3668 52.7327 52.4002C53.5993 51.4502 54.016 50.1835 53.8993 48.9168L52.966 38.7668Z" fill="#EF5B0C"/>
<path d="M51 28.0835H49.3333C49.3167 28.0835 49.3167 28.0835 49.3 28.0835L48.6667 25.0668C48.0667 22.1501 46.8167 19.4668 41.85 19.4668H37.25H34.75H30.15C25.1833 19.4668 23.9333 22.1501 23.3333 25.0668L22.7 28.0835C22.6833 28.0835 22.6833 28.0835 22.6667 28.0835H21C20.3167 28.0835 19.75 28.6501 19.75 29.3335C19.75 30.0168 20.3167 30.5835 21 30.5835H22.1833L21.4833 33.9168C22.3833 33.4002 23.6333 33.0835 25.3667 33.0835H46.6333C48.3667 33.0835 49.6167 33.4002 50.5167 33.9168L49.8167 30.5835H51C51.6833 30.5835 52.25 30.0168 52.25 29.3335C52.25 28.6501 51.6833 28.0835 51 28.0835Z" fill="#EF5B0C"/>
<path d="M31 42.25H26C25.3167 42.25 24.75 41.6833 24.75 41C24.75 40.3167 25.3167 39.75 26 39.75H31C31.6833 39.75 32.25 40.3167 32.25 41C32.25 41.6833 31.6833 42.25 31 42.25Z" fill="#EF5B0C"/>
<path d="M46 42.25H41C40.3167 42.25 39.75 41.6833 39.75 41C39.75 40.3167 40.3167 39.75 41 39.75H46C46.6833 39.75 47.25 40.3167 47.25 41C47.25 41.6833 46.6833 42.25 46 42.25Z" fill="#EF5B0C"/>
</g>
<defs>
<clipPath id="clip0_1910_13">
<rect width="72" height="72" fill="white"/>
</clipPath>
</defs>
</svg>
