<svg xmlns="http://www.w3.org/2000/svg" xmlns:xlink="http://www.w3.org/1999/xlink" width="500" zoomAndPan="magnify" viewBox="0 0 375 374.999991" height="500" preserveAspectRatio="xMidYMid meet" version="1.0"><defs><g/><clipPath id="23367f1ffa"><path d="M 212 128.578125 L 233 128.578125 L 233 157 L 212 157 Z M 212 128.578125 " clip-rule="nonzero"/></clipPath><clipPath id="a0df528fd6"><path d="M 178.328125 153 L 207 153 L 207 195 L 178.328125 195 Z M 178.328125 153 " clip-rule="nonzero"/></clipPath><clipPath id="f9636c59cf"><path d="M 227 159.664062 L 301 159.664062 L 301 246.328125 L 227 246.328125 Z M 227 159.664062 " clip-rule="nonzero"/></clipPath></defs><rect x="-37.5" width="450" fill="#ffffff" y="-37.499999" height="449.999989" fill-opacity="1"/><rect x="-37.5" width="450" fill="#ffffff" y="-37.499999" height="449.999989" fill-opacity="1"/><g clip-path="url(#23367f1ffa)"><path fill="#ef5b0c" d="M 222.53125 156.246094 L 225.246094 146.425781 L 232.003906 142.386719 L 225.203125 138.417969 L 222.382812 128.625 L 219.667969 138.445312 L 212.910156 142.488281 L 219.710938 146.457031 L 222.53125 156.246094 " fill-opacity="1" fill-rule="nonzero"/></g><g clip-path="url(#a0df528fd6)"><path fill="#ef5b0c" d="M 197.070312 170.558594 L 192.328125 153.757812 L 187.589844 170.558594 L 178.328125 175.226562 L 188.386719 180.300781 L 192.328125 194.273438 L 196.273438 180.300781 L 206.332031 175.226562 L 197.070312 170.558594 " fill-opacity="1" fill-rule="nonzero"/></g><path fill="#ef5b0c" d="M 209.039062 224.554688 L 211.808594 234.363281 L 214.578125 224.554688 L 221.355469 220.550781 L 214.578125 216.546875 L 211.808594 206.738281 L 209.039062 216.546875 L 202.261719 220.550781 L 209.039062 224.554688 " fill-opacity="1" fill-rule="nonzero"/><g clip-path="url(#f9636c59cf)"><path fill="#ef5b0c" d="M 232.390625 214.75 C 233 213.808594 233.941406 213.164062 235.035156 212.929688 C 235.328125 212.867188 235.625 212.835938 235.917969 212.835938 C 236.71875 212.835938 237.503906 213.066406 238.195312 213.511719 L 245.339844 218.148438 C 246.152344 218.675781 247.203125 218.628906 247.964844 218.03125 C 248.726562 217.433594 249.023438 216.421875 248.703125 215.511719 L 239.140625 188.0625 C 238.433594 186.03125 239.511719 183.800781 241.542969 183.09375 C 243.367188 182.457031 245.382812 183.273438 246.269531 184.960938 L 254.589844 208.84375 C 254.914062 209.777344 255.789062 210.359375 256.722656 210.359375 C 256.972656 210.359375 257.222656 210.320312 257.46875 210.234375 C 258.648438 209.824219 259.269531 208.535156 258.859375 207.355469 L 250.703125 183.949219 C 250.683594 183.832031 250.65625 183.71875 250.617188 183.601562 L 247.023438 173.296875 C 246.683594 172.3125 246.742188 171.25 247.195312 170.3125 C 247.652344 169.375 248.441406 168.667969 249.425781 168.328125 C 251.4375 167.625 253.660156 168.6875 254.382812 170.695312 C 254.425781 170.816406 254.480469 170.933594 254.542969 171.042969 L 266.292969 204.765625 C 266.617188 205.699219 267.492188 206.285156 268.425781 206.285156 C 268.671875 206.285156 268.921875 206.242188 269.167969 206.15625 C 270.347656 205.746094 270.96875 204.457031 270.558594 203.28125 L 258.597656 168.945312 C 258.265625 167.085938 259.332031 165.21875 261.152344 164.585938 C 263.183594 163.875 265.414062 164.953125 266.121094 166.984375 L 269.816406 177.601562 C 269.902344 177.839844 270.023438 178.058594 270.175781 178.25 L 277.992188 200.691406 C 278.316406 201.625 279.191406 202.207031 280.125 202.207031 C 280.375 202.207031 280.625 202.167969 280.871094 202.082031 C 282.046875 201.671875 282.671875 200.382812 282.261719 199.203125 L 274.007812 175.511719 C 273.890625 173.792969 274.933594 172.148438 276.609375 171.5625 C 278.640625 170.855469 280.871094 171.933594 281.578125 173.964844 L 292.476562 205.25 C 292.492188 205.449219 292.53125 205.652344 292.597656 205.84375 L 295.328125 213.679688 C 298.984375 224.175781 293.421875 235.6875 282.925781 239.34375 L 278.921875 240.738281 C 272.484375 242.984375 265.402344 241.832031 259.984375 237.660156 C 259.933594 237.625 259.886719 237.589844 259.835938 237.554688 L 233.625 220.554688 C 232.6875 219.941406 232.039062 219.003906 231.804688 217.910156 C 231.570312 216.8125 231.78125 215.691406 232.390625 214.75 Z M 227.386719 218.851562 C 227.871094 221.125 229.214844 223.078125 231.167969 224.34375 L 257.300781 241.300781 C 261.683594 244.648438 266.945312 246.386719 272.28125 246.386719 C 275.007812 246.386719 277.753906 245.933594 280.410156 245.007812 L 284.410156 243.613281 C 297.261719 239.136719 304.074219 225.039062 299.597656 212.191406 L 297.0625 204.925781 C 297.050781 204.722656 297.011719 204.523438 296.945312 204.332031 L 285.847656 172.476562 C 284.320312 168.09375 279.507812 165.765625 275.121094 167.296875 C 273.808594 167.753906 272.671875 168.515625 271.773438 169.472656 L 270.386719 165.5 C 268.859375 161.113281 264.050781 158.789062 259.664062 160.316406 C 257.453125 161.085938 255.757812 162.699219 254.828125 164.675781 C 252.792969 163.535156 250.296875 163.234375 247.941406 164.058594 C 245.816406 164.796875 244.105469 166.320312 243.128906 168.347656 C 242.148438 170.371094 242.015625 172.65625 242.757812 174.78125 L 244.035156 178.449219 C 242.734375 178.257812 241.371094 178.367188 240.054688 178.824219 C 235.671875 180.351562 233.347656 185.164062 234.875 189.550781 L 242.265625 210.769531 L 240.652344 209.722656 C 238.699219 208.453125 236.371094 208.023438 234.09375 208.507812 C 231.816406 208.992188 229.863281 210.335938 228.597656 212.289062 C 227.332031 214.242188 226.902344 216.574219 227.386719 218.851562 " fill-opacity="1" fill-rule="nonzero"/></g><path fill="#ef5b0c" d="M 219.230469 165.230469 C 216.800781 170.289062 214.398438 181.398438 218.296875 189.671875 C 220.648438 194.65625 224.824219 197.921875 230.703125 199.375 C 231.917969 199.675781 233.140625 198.933594 233.441406 197.722656 C 233.738281 196.511719 233 195.285156 231.789062 194.988281 C 227.292969 193.878906 224.128906 191.441406 222.386719 187.742188 C 219.035156 180.632812 221.558594 170.824219 223.304688 167.1875 C 224.804688 164.066406 228.414062 162.585938 232.230469 161.011719 C 234.664062 160.015625 237.179688 158.980469 239.261719 157.445312 C 242.488281 155.078125 244.601562 152.527344 246.464844 150.273438 C 249.488281 146.621094 251.878906 143.734375 258.109375 142.402344 C 266.398438 140.632812 270.078125 142.691406 277.410156 146.800781 L 277.570312 146.890625 C 281.898438 149.3125 286.476562 150.800781 290.902344 152.238281 C 300.101562 155.226562 308.046875 157.804688 312.328125 167.734375 C 314.304688 172.320312 313.652344 175.207031 312.742188 179.207031 C 312.4375 180.558594 312.121094 181.957031 311.867188 183.558594 C 311.28125 187.289062 311.285156 191.078125 311.289062 194.738281 C 311.292969 198.398438 311.292969 201.855469 310.757812 205.242188 C 309.894531 210.683594 307.417969 214.722656 303.1875 217.597656 C 302.15625 218.296875 301.886719 219.703125 302.589844 220.734375 C 303.027344 221.378906 303.738281 221.726562 304.460938 221.726562 C 304.898438 221.726562 305.339844 221.597656 305.726562 221.335938 C 311.046875 217.722656 314.152344 212.6875 315.21875 205.949219 C 315.8125 202.207031 315.8125 198.410156 315.808594 194.734375 C 315.804688 191.085938 315.804688 187.640625 316.335938 184.257812 C 316.5625 182.808594 316.863281 181.484375 317.152344 180.203125 C 318.121094 175.925781 319.039062 171.878906 316.480469 165.945312 C 311.386719 154.136719 301.683594 150.988281 292.296875 147.9375 C 288.082031 146.570312 283.71875 145.152344 279.78125 142.945312 L 279.617188 142.855469 C 272.09375 138.640625 267.121094 135.855469 257.164062 137.984375 C 249.398438 139.644531 246.136719 143.582031 242.984375 147.394531 C 241.203125 149.542969 239.363281 151.765625 236.585938 153.804688 C 234.949219 155.011719 232.792969 155.894531 230.515625 156.832031 C 226.28125 158.574219 221.484375 160.546875 219.230469 165.230469 " fill-opacity="1" fill-rule="nonzero"/><g fill="#ef5b0c" fill-opacity="1"><g transform="translate(58.899457, 182.358151)"><g><path d="M 18.140625 -10.40625 L 18.140625 -6.375 C 17.660156 -4.164062 16.609375 -2.492188 14.984375 -1.359375 C 13.367188 -0.222656 11.5625 0.34375 9.5625 0.34375 C 7.0625 0.34375 4.925781 -0.59375 3.15625 -2.46875 C 1.394531 -4.351562 0.515625 -6.625 0.515625 -9.28125 C 0.515625 -11.976562 1.378906 -14.253906 3.109375 -16.109375 C 4.835938 -17.972656 6.988281 -18.90625 9.5625 -18.90625 C 12.582031 -18.90625 14.972656 -17.847656 16.734375 -15.734375 L 13.953125 -12.703125 C 12.960938 -14.285156 11.582031 -15.078125 9.8125 -15.078125 C 8.507812 -15.078125 7.394531 -14.507812 6.46875 -13.375 C 5.550781 -12.25 5.09375 -10.882812 5.09375 -9.28125 C 5.09375 -7.695312 5.550781 -6.347656 6.46875 -5.234375 C 7.394531 -4.117188 8.507812 -3.5625 9.8125 -3.5625 C 10.894531 -3.5625 11.835938 -3.882812 12.640625 -4.53125 C 13.441406 -5.1875 13.84375 -6.054688 13.84375 -7.140625 L 9.5625 -7.140625 L 9.5625 -10.40625 Z M 18.140625 -10.40625 "/></g></g></g><g fill="#ef5b0c" fill-opacity="1"><g transform="translate(77.561725, 182.358151)"><g><path d="M 5.578125 -7.453125 L 5.578125 0 L 1.34375 0 L 1.34375 -18.578125 L 5.578125 -18.578125 L 5.578125 -11.171875 L 11.578125 -11.171875 L 11.578125 -18.578125 L 15.8125 -18.578125 L 15.8125 0 L 11.578125 0 L 11.578125 -7.453125 Z M 5.578125 -7.453125 "/></g></g></g><g fill="#ef5b0c" fill-opacity="1"><g transform="translate(94.715697, 182.358151)"><g><path d="M 10.78125 -18.578125 L 18.28125 0 L 13.734375 0 L 12.359375 -3.71875 L 5.296875 -3.71875 L 3.921875 0 L -0.625 0 L 6.875 -18.578125 Z M 10.921875 -7.4375 L 8.84375 -12.828125 L 8.796875 -12.828125 L 6.734375 -7.4375 Z M 10.921875 -7.4375 "/></g></g></g><g fill="#ef5b0c" fill-opacity="1"><g transform="translate(112.364934, 182.358151)"><g><path d="M 8.203125 -18.90625 C 9.203125 -18.90625 10.179688 -18.757812 11.140625 -18.46875 C 12.109375 -18.175781 12.820312 -17.890625 13.28125 -17.609375 L 13.953125 -17.15625 L 12.25 -13.78125 C 12.113281 -13.875 11.925781 -13.988281 11.6875 -14.125 C 11.445312 -14.269531 10.992188 -14.460938 10.328125 -14.703125 C 9.671875 -14.941406 9.054688 -15.0625 8.484375 -15.0625 C 7.785156 -15.0625 7.242188 -14.910156 6.859375 -14.609375 C 6.472656 -14.304688 6.28125 -13.898438 6.28125 -13.390625 C 6.28125 -13.140625 6.367188 -12.90625 6.546875 -12.6875 C 6.734375 -12.46875 7.039062 -12.234375 7.46875 -11.984375 C 7.90625 -11.742188 8.289062 -11.546875 8.625 -11.390625 C 8.957031 -11.242188 9.46875 -11.019531 10.15625 -10.71875 C 11.351562 -10.207031 12.375 -9.507812 13.21875 -8.625 C 14.070312 -7.75 14.5 -6.757812 14.5 -5.65625 C 14.5 -4.582031 14.304688 -3.648438 13.921875 -2.859375 C 13.546875 -2.066406 13.019531 -1.441406 12.34375 -0.984375 C 11.675781 -0.535156 10.9375 -0.203125 10.125 0.015625 C 9.320312 0.234375 8.445312 0.34375 7.5 0.34375 C 6.6875 0.34375 5.890625 0.257812 5.109375 0.09375 C 4.328125 -0.0703125 3.671875 -0.28125 3.140625 -0.53125 C 2.617188 -0.78125 2.148438 -1.023438 1.734375 -1.265625 C 1.316406 -1.503906 1.007812 -1.707031 0.8125 -1.875 L 0.515625 -2.109375 L 2.640625 -5.671875 C 2.816406 -5.523438 3.0625 -5.332031 3.375 -5.09375 C 3.6875 -4.863281 4.242188 -4.550781 5.046875 -4.15625 C 5.859375 -3.769531 6.570312 -3.578125 7.1875 -3.578125 C 8.96875 -3.578125 9.859375 -4.1875 9.859375 -5.40625 C 9.859375 -5.65625 9.796875 -5.890625 9.671875 -6.109375 C 9.546875 -6.328125 9.320312 -6.546875 9 -6.765625 C 8.675781 -6.984375 8.390625 -7.15625 8.140625 -7.28125 C 7.890625 -7.40625 7.484375 -7.597656 6.921875 -7.859375 C 6.359375 -8.128906 5.941406 -8.332031 5.671875 -8.46875 C 4.546875 -9.019531 3.675781 -9.710938 3.0625 -10.546875 C 2.445312 -11.378906 2.140625 -12.273438 2.140625 -13.234375 C 2.140625 -14.898438 2.753906 -16.257812 3.984375 -17.3125 C 5.210938 -18.375 6.617188 -18.90625 8.203125 -18.90625 Z M 8.203125 -18.90625 "/></g></g></g><g fill="#ef5b0c" fill-opacity="1"><g transform="translate(127.492855, 182.358151)"><g><path d="M 8.203125 -18.90625 C 9.203125 -18.90625 10.179688 -18.757812 11.140625 -18.46875 C 12.109375 -18.175781 12.820312 -17.890625 13.28125 -17.609375 L 13.953125 -17.15625 L 12.25 -13.78125 C 12.113281 -13.875 11.925781 -13.988281 11.6875 -14.125 C 11.445312 -14.269531 10.992188 -14.460938 10.328125 -14.703125 C 9.671875 -14.941406 9.054688 -15.0625 8.484375 -15.0625 C 7.785156 -15.0625 7.242188 -14.910156 6.859375 -14.609375 C 6.472656 -14.304688 6.28125 -13.898438 6.28125 -13.390625 C 6.28125 -13.140625 6.367188 -12.90625 6.546875 -12.6875 C 6.734375 -12.46875 7.039062 -12.234375 7.46875 -11.984375 C 7.90625 -11.742188 8.289062 -11.546875 8.625 -11.390625 C 8.957031 -11.242188 9.46875 -11.019531 10.15625 -10.71875 C 11.351562 -10.207031 12.375 -9.507812 13.21875 -8.625 C 14.070312 -7.75 14.5 -6.757812 14.5 -5.65625 C 14.5 -4.582031 14.304688 -3.648438 13.921875 -2.859375 C 13.546875 -2.066406 13.019531 -1.441406 12.34375 -0.984375 C 11.675781 -0.535156 10.9375 -0.203125 10.125 0.015625 C 9.320312 0.234375 8.445312 0.34375 7.5 0.34375 C 6.6875 0.34375 5.890625 0.257812 5.109375 0.09375 C 4.328125 -0.0703125 3.671875 -0.28125 3.140625 -0.53125 C 2.617188 -0.78125 2.148438 -1.023438 1.734375 -1.265625 C 1.316406 -1.503906 1.007812 -1.707031 0.8125 -1.875 L 0.515625 -2.109375 L 2.640625 -5.671875 C 2.816406 -5.523438 3.0625 -5.332031 3.375 -5.09375 C 3.6875 -4.863281 4.242188 -4.550781 5.046875 -4.15625 C 5.859375 -3.769531 6.570312 -3.578125 7.1875 -3.578125 C 8.96875 -3.578125 9.859375 -4.1875 9.859375 -5.40625 C 9.859375 -5.65625 9.796875 -5.890625 9.671875 -6.109375 C 9.546875 -6.328125 9.320312 -6.546875 9 -6.765625 C 8.675781 -6.984375 8.390625 -7.15625 8.140625 -7.28125 C 7.890625 -7.40625 7.484375 -7.597656 6.921875 -7.859375 C 6.359375 -8.128906 5.941406 -8.332031 5.671875 -8.46875 C 4.546875 -9.019531 3.675781 -9.710938 3.0625 -10.546875 C 2.445312 -11.378906 2.140625 -12.273438 2.140625 -13.234375 C 2.140625 -14.898438 2.753906 -16.257812 3.984375 -17.3125 C 5.210938 -18.375 6.617188 -18.90625 8.203125 -18.90625 Z M 8.203125 -18.90625 "/></g></g></g><g fill="#ef5b0c" fill-opacity="1"><g transform="translate(142.620777, 182.358151)"><g><path d="M 5.578125 -18.578125 L 5.578125 -3.71875 L 11.984375 -3.71875 L 11.984375 0 L 1.34375 0 L 1.34375 -18.578125 Z M 5.578125 -18.578125 "/></g></g></g><g fill="#ef5b0c" fill-opacity="1"><g transform="translate(155.339934, 182.358151)"><g><path d="M 10.78125 -18.578125 L 18.28125 0 L 13.734375 0 L 12.359375 -3.71875 L 5.296875 -3.71875 L 3.921875 0 L -0.625 0 L 6.875 -18.578125 Z M 10.921875 -7.4375 L 8.84375 -12.828125 L 8.796875 -12.828125 L 6.734375 -7.4375 Z M 10.921875 -7.4375 "/></g></g></g><g fill="#ef5b0c" fill-opacity="1"><g transform="translate(58.899457, 214.608149)"><g/></g></g><g fill="#ef5b0c" fill-opacity="1"><g transform="translate(68.59631, 214.608149)"><g/></g></g><g fill="#ef5b0c" fill-opacity="1"><g transform="translate(78.293987, 214.608149)"><g><path d="M 17.265625 0.171875 C 15.722656 0.171875 14.398438 -0.0859375 13.296875 -0.609375 C 12.203125 -1.128906 11.425781 -2.085938 10.96875 -3.484375 C 9.695312 -3.171875 8.472656 -3.046875 7.296875 -3.109375 C 6.128906 -3.171875 5.070312 -3.394531 4.125 -3.78125 C 3.175781 -4.175781 2.425781 -4.722656 1.875 -5.421875 C 1.332031 -6.117188 1.0625 -6.953125 1.0625 -7.921875 C 1.0625 -9.203125 1.460938 -10.367188 2.265625 -11.421875 C 3.078125 -12.472656 4.164062 -13.363281 5.53125 -14.09375 C 6.90625 -14.832031 8.425781 -15.34375 10.09375 -15.625 L 9.984375 -18.328125 L 12.859375 -18.328125 L 13.421875 -6.609375 C 13.472656 -5.492188 13.671875 -4.65625 14.015625 -4.09375 C 14.359375 -3.539062 14.832031 -3.175781 15.4375 -3 C 16.039062 -2.820312 16.765625 -2.734375 17.609375 -2.734375 C 18.109375 -2.734375 18.46875 -2.597656 18.6875 -2.328125 C 18.914062 -2.054688 19.03125 -1.726562 19.03125 -1.34375 C 19.03125 -0.96875 18.863281 -0.617188 18.53125 -0.296875 C 18.207031 0.015625 17.785156 0.171875 17.265625 0.171875 Z M 3.875 -8.375 C 3.875 -7.832031 4.09375 -7.382812 4.53125 -7.03125 C 4.96875 -6.675781 5.53125 -6.414062 6.21875 -6.25 C 6.90625 -6.082031 7.628906 -6 8.390625 -6 C 9.160156 -6 9.878906 -6.0625 10.546875 -6.1875 L 10.234375 -12.671875 C 8.878906 -12.535156 7.726562 -12.234375 6.78125 -11.765625 C 5.832031 -11.304688 5.109375 -10.773438 4.609375 -10.171875 C 4.117188 -9.566406 3.875 -8.96875 3.875 -8.375 Z M 11.15625 -22.421875 C 10.65625 -22.421875 10.234375 -22.585938 9.890625 -22.921875 C 9.546875 -23.265625 9.375 -23.675781 9.375 -24.15625 C 9.375 -24.625 9.546875 -25.035156 9.890625 -25.390625 C 10.234375 -25.753906 10.65625 -25.9375 11.15625 -25.9375 C 11.632812 -25.9375 12.046875 -25.753906 12.390625 -25.390625 C 12.734375 -25.035156 12.90625 -24.625 12.90625 -24.15625 C 12.90625 -23.675781 12.734375 -23.265625 12.390625 -22.921875 C 12.046875 -22.585938 11.632812 -22.421875 11.15625 -22.421875 Z M 6.296875 -22.421875 C 5.796875 -22.421875 5.375 -22.585938 5.03125 -22.921875 C 4.6875 -23.265625 4.515625 -23.675781 4.515625 -24.15625 C 4.515625 -24.625 4.6875 -25.035156 5.03125 -25.390625 C 5.375 -25.753906 5.796875 -25.9375 6.296875 -25.9375 C 6.765625 -25.9375 7.171875 -25.753906 7.515625 -25.390625 C 7.859375 -25.035156 8.03125 -24.625 8.03125 -24.15625 C 8.03125 -23.675781 7.859375 -23.265625 7.515625 -22.921875 C 7.171875 -22.585938 6.765625 -22.421875 6.296875 -22.421875 Z M 6.296875 -22.421875 "/></g></g></g><g fill="#ef5b0c" fill-opacity="1"><g transform="translate(95.556516, 214.608149)"><g><path d="M 0 0.171875 L 0.3125 -2.734375 C 1.664062 -2.734375 2.613281 -2.863281 3.15625 -3.125 C 3.707031 -3.382812 4.019531 -3.835938 4.09375 -4.484375 C 4.175781 -5.140625 4.195312 -6.070312 4.15625 -7.28125 L 3.546875 -25.359375 L 6.5 -25.359375 L 7.0625 -7.359375 C 7.09375 -6.148438 7.285156 -5.207031 7.640625 -4.53125 C 7.992188 -3.851562 8.460938 -3.382812 9.046875 -3.125 C 9.640625 -2.863281 10.296875 -2.734375 11.015625 -2.734375 C 11.503906 -2.734375 11.863281 -2.597656 12.09375 -2.328125 C 12.320312 -2.054688 12.4375 -1.726562 12.4375 -1.34375 C 12.4375 -0.96875 12.269531 -0.617188 11.9375 -0.296875 C 11.601562 0.015625 11.175781 0.171875 10.65625 0.171875 C 9.445312 0.171875 8.488281 -0.0546875 7.78125 -0.515625 C 7.070312 -0.972656 6.5625 -1.535156 6.25 -2.203125 C 5.78125 -1.421875 5.050781 -0.828125 4.0625 -0.421875 C 3.082031 -0.0234375 1.726562 0.171875 0 0.171875 Z M 0 0.171875 "/></g></g></g><g fill="#ef5b0c" fill-opacity="1"><g transform="translate(106.212396, 214.608149)"><g><path d="M 0 0.171875 L 0.359375 -2.734375 C 1.109375 -2.734375 1.71875 -2.785156 2.1875 -2.890625 C 2.664062 -2.992188 3.066406 -3.265625 3.390625 -3.703125 C 3.710938 -4.148438 4.015625 -4.84375 4.296875 -5.78125 C 4.578125 -6.726562 4.910156 -8.054688 5.296875 -9.765625 L 7.953125 -9.015625 C 7.816406 -8.398438 7.648438 -7.675781 7.453125 -6.84375 C 7.265625 -6.019531 7.171875 -5.273438 7.171875 -4.609375 C 7.171875 -4.023438 7.394531 -3.566406 7.84375 -3.234375 C 8.300781 -2.898438 9.117188 -2.734375 10.296875 -2.734375 C 11.003906 -2.734375 11.582031 -2.789062 12.03125 -2.90625 C 12.488281 -3.03125 12.863281 -3.316406 13.15625 -3.765625 C 13.457031 -4.210938 13.722656 -4.925781 13.953125 -5.90625 C 14.191406 -6.894531 14.441406 -8.265625 14.703125 -10.015625 L 17.40625 -9.515625 C 17.332031 -9.085938 17.238281 -8.566406 17.125 -7.953125 C 17.019531 -7.335938 16.929688 -6.726562 16.859375 -6.125 C 16.796875 -5.519531 16.765625 -5.015625 16.765625 -4.609375 C 16.765625 -4.285156 16.835938 -3.972656 16.984375 -3.671875 C 17.140625 -3.378906 17.445312 -3.148438 17.90625 -2.984375 C 18.375 -2.816406 19.070312 -2.734375 20 -2.734375 C 21.175781 -2.734375 22.03125 -2.972656 22.5625 -3.453125 C 23.101562 -3.941406 23.375 -4.707031 23.375 -5.75 C 23.375 -6.5625 23.347656 -7.453125 23.296875 -8.421875 C 23.253906 -9.390625 23.132812 -10.609375 22.9375 -12.078125 L 25.53125 -12.25 C 25.675781 -10.332031 25.835938 -8.757812 26.015625 -7.53125 C 26.191406 -6.300781 26.453125 -5.335938 26.796875 -4.640625 C 27.140625 -3.941406 27.609375 -3.445312 28.203125 -3.15625 C 28.796875 -2.875 29.578125 -2.734375 30.546875 -2.734375 C 31.046875 -2.734375 31.40625 -2.597656 31.625 -2.328125 C 31.851562 -2.054688 31.96875 -1.726562 31.96875 -1.34375 C 31.96875 -0.96875 31.800781 -0.617188 31.46875 -0.296875 C 31.132812 0.015625 30.707031 0.171875 30.1875 0.171875 C 28.863281 0.171875 27.769531 -0.117188 26.90625 -0.703125 C 26.039062 -1.296875 25.40625 -2.046875 25 -2.953125 C 24.53125 -1.691406 23.816406 -0.851562 22.859375 -0.4375 C 21.898438 -0.03125 20.835938 0.171875 19.671875 0.171875 C 18.460938 0.171875 17.507812 0 16.8125 -0.34375 C 16.113281 -0.6875 15.597656 -1.210938 15.265625 -1.921875 C 14.703125 -1.066406 14.023438 -0.503906 13.234375 -0.234375 C 12.441406 0.0351562 11.320312 0.171875 9.875 0.171875 C 9.375 0.171875 8.84375 0.113281 8.28125 0 C 7.726562 -0.113281 7.210938 -0.34375 6.734375 -0.6875 C 6.265625 -1.03125 5.898438 -1.546875 5.640625 -2.234375 C 5.023438 -1.191406 4.257812 -0.53125 3.34375 -0.25 C 2.4375 0.03125 1.320312 0.171875 0 0.171875 Z M 0 0.171875 "/></g></g></g><g fill="#ef5b0c" fill-opacity="1"><g transform="translate(136.404059, 214.608149)"><g><path d="M 0 0.171875 L 0.359375 -2.734375 C 1.847656 -2.734375 3 -2.742188 3.8125 -2.765625 C 4.632812 -2.796875 5.234375 -2.828125 5.609375 -2.859375 C 5.992188 -2.890625 6.253906 -2.90625 6.390625 -2.90625 C 5.960938 -3.144531 5.460938 -3.519531 4.890625 -4.03125 C 4.328125 -4.539062 3.832031 -5.191406 3.40625 -5.984375 C 2.976562 -6.773438 2.765625 -7.71875 2.765625 -8.8125 C 2.765625 -10.132812 3.078125 -11.3125 3.703125 -12.34375 C 4.335938 -13.375 5.203125 -14.171875 6.296875 -14.734375 C 7.398438 -15.304688 8.664062 -15.59375 10.09375 -15.59375 C 11.226562 -15.59375 12.398438 -15.398438 13.609375 -15.015625 L 13 -12.28125 C 12 -12.539062 11.03125 -12.671875 10.09375 -12.671875 C 8.789062 -12.671875 7.726562 -12.320312 6.90625 -11.625 C 6.09375 -10.925781 5.6875 -9.988281 5.6875 -8.8125 C 5.6875 -8.03125 5.882812 -7.335938 6.28125 -6.734375 C 6.6875 -6.128906 7.191406 -5.617188 7.796875 -5.203125 C 8.398438 -4.785156 9.023438 -4.46875 9.671875 -4.25 C 10.328125 -4.039062 10.914062 -3.953125 11.4375 -3.984375 C 11.8125 -4.097656 12.160156 -4.207031 12.484375 -4.3125 C 12.804688 -4.414062 13.207031 -4.5625 13.6875 -4.75 C 14.175781 -4.945312 14.878906 -5.257812 15.796875 -5.6875 L 16.796875 -3.09375 C 15.210938 -2.445312 13.597656 -1.875 11.953125 -1.375 C 10.304688 -0.882812 8.515625 -0.503906 6.578125 -0.234375 C 4.648438 0.0351562 2.457031 0.171875 0 0.171875 Z M 9.421875 -19.25 C 8.921875 -19.25 8.5 -19.414062 8.15625 -19.75 C 7.8125 -20.09375 7.640625 -20.503906 7.640625 -20.984375 C 7.640625 -21.453125 7.8125 -21.863281 8.15625 -22.21875 C 8.5 -22.582031 8.921875 -22.765625 9.421875 -22.765625 C 9.890625 -22.765625 10.296875 -22.582031 10.640625 -22.21875 C 10.984375 -21.863281 11.15625 -21.453125 11.15625 -20.984375 C 11.15625 -20.503906 10.984375 -20.09375 10.640625 -19.75 C 10.296875 -19.414062 9.890625 -19.25 9.421875 -19.25 Z M 9.421875 -19.25 "/></g></g></g><g fill="#ef5b0c" fill-opacity="1"><g transform="translate(154.278357, 214.608149)"><g/></g></g><g fill="#ef5b0c" fill-opacity="1"><g transform="translate(163.97521, 214.608149)"><g/></g></g></svg>