<svg width="72" height="72" viewBox="0 0 72 72" fill="none" xmlns="http://www.w3.org/2000/svg">
<g clip-path="url(#clip0_1910_9)">
<path d="M72 0H0V72H72V0Z" fill="#FFF8F1"/>
<path opacity="0.35" d="M36.25 53C35.1682 53 34.067 52.5943 33.2364 51.7443C32.4057 50.9136 20.4091 40.9261 18.4193 38.9557C13.8602 34.3966 13.8602 26.9977 18.4193 22.4193C22.9977 17.8602 30.3966 17.8602 34.9557 22.4193C35.4386 22.9216 35.8636 23.4625 36.25 24.0034L40.3976 34.2324L36.25 53Z" fill="#EF5B0C"/>
<path d="M36.25 53C37.3318 53 38.433 52.5943 39.2636 51.7443C40.0943 50.9136 52.0909 40.9261 54.0807 38.9557C58.6398 34.3966 58.6398 26.9977 54.0807 22.4193C49.5023 17.8602 42.1034 17.8602 37.5443 22.4193C37.0614 22.9216 36.6364 23.4625 36.25 24.0034V36.3863V53Z" fill="#EF5B0C"/>
</g>
<defs>
<clipPath id="clip0_1910_9">
<rect width="72" height="72" fill="white"/>
</clipPath>
</defs>
</svg>
