<svg width="72" height="72" viewBox="0 0 72 72" fill="none" xmlns="http://www.w3.org/2000/svg">
<g clip-path="url(#clip0_1910_51)">
<path d="M72 0H0V72H72V0Z" fill="#FFF8F1"/>
<path opacity="0.35" d="M51.75 46.4419V32.763C51.75 30.6439 50.8057 28.6369 49.1777 27.2964L40.4277 20.0914C37.851 17.9695 34.149 17.9696 31.5723 20.0914L22.8223 27.2964C21.1944 28.6369 20.25 30.6439 20.25 32.763V46.4419C20.25 50.34 23.384 53.5 27.25 53.5H44.75C48.6159 53.5 51.75 50.34 51.75 46.4419Z" fill="#EF5B0C"/>
<path fill-rule="evenodd" clip-rule="evenodd" d="M43.728 33.158C44.3312 33.5602 44.4941 34.3751 44.092 34.9782L39.4603 41.9258C37.7757 44.4528 34.2005 44.8067 32.0531 42.6593L29.8219 40.4282C29.3094 39.9156 29.3094 39.0846 29.8219 38.572C30.3345 38.0596 31.1655 38.0596 31.6781 38.572L33.9093 40.8032C34.8852 41.7794 36.5105 41.6184 37.2761 40.4699L41.908 33.5222C42.31 32.9189 43.1249 32.756 43.728 33.158Z" fill="#EF5B0C"/>
</g>
<defs>
<clipPath id="clip0_1910_51">
<rect width="72" height="72" fill="white"/>
</clipPath>
</defs>
</svg>
