<svg width="72" height="72" viewBox="0 0 72 72" fill="none" xmlns="http://www.w3.org/2000/svg">
<g clip-path="url(#clip0_1910_18)">
<path d="M72 0H0V72H72V0Z" fill="#FFF8F1"/>
<path opacity="0.35" d="M42.5449 54H29.454C26.7425 54 24.5449 51.8024 24.5449 49.0909V22.9091C24.5449 20.1976 26.7425 18 29.454 18H42.5449C45.2564 18 47.454 20.1976 47.454 22.9091V49.0909C47.454 51.8024 45.2564 54 42.5449 54Z" fill="#EF5B0C"/>
<path d="M35.9995 50.7272C37.3551 50.7272 38.454 49.6283 38.454 48.2727C38.454 46.9171 37.3551 45.8181 35.9995 45.8181C34.6438 45.8181 33.5449 46.9171 33.5449 48.2727C33.5449 49.6283 34.6438 50.7272 35.9995 50.7272Z" fill="#EF5B0C"/>
</g>
<defs>
<clipPath id="clip0_1910_18">
<rect width="72" height="72" fill="white"/>
</clipPath>
</defs>
</svg>
