<svg width="72" height="72" viewBox="0 0 72 72" fill="none" xmlns="http://www.w3.org/2000/svg">
<g clip-path="url(#clip0_1910_22)">
<path d="M72 0H0V72H72V0Z" fill="white"/>
<path opacity="0.35" d="M36 35C40.4183 35 44 31.4183 44 27C44 22.5817 40.4183 19 36 19C31.5817 19 28 22.5817 28 27C28 31.4183 31.5817 35 36 35Z" fill="#EF5B0C"/>
<path opacity="0.35" d="M21 39C23.7614 39 26 36.7614 26 34C26 31.2386 23.7614 29 21 29C18.2386 29 16 31.2386 16 34C16 36.7614 18.2386 39 21 39Z" fill="#EF5B0C"/>
<path opacity="0.35" d="M51 39C53.7614 39 56 36.7614 56 34C56 31.2386 53.7614 29 51 29C48.2386 29 46 31.2386 46 34C46 36.7614 48.2386 39 51 39Z" fill="#EF5B0C"/>
<path d="M42 53H30C26.686 53 24 49.866 24 46C24 42.134 26.686 39 30 39H42C45.314 39 48 42.134 48 46C48 49.866 45.314 53 42 53Z" fill="#EF5B0C"/>
<path opacity="0.35" d="M55.102 43H16.744C14.124 43 12 45.124 12 47.744V48.258C12 50.876 14.124 53 16.744 53H55.102C57.806 53 60 50.806 60 48.1V47.898C60 45.194 57.806 43 55.102 43Z" fill="#EF5B0C"/>
</g>
<defs>
<clipPath id="clip0_1910_22">
<rect width="72" height="72" fill="white"/>
</clipPath>
</defs>
</svg>
